<?xml version="1.0" encoding="utf-8"?>
<!-- Generator: Adobe Illustrator 15.0.2, SVG Export Plug-In  -->
<!DOCTYPE svg PUBLIC "-//W3C//DTD SVG 1.1//EN" "http://www.w3.org/Graphics/SVG/1.1/DTD/svg11.dtd" [
	<!ENTITY ns_flows "http://ns.adobe.com/Flows/1.0/">
]>
<svg version="1.1"
	 xmlns="http://www.w3.org/2000/svg" xmlns:xlink="http://www.w3.org/1999/xlink" xmlns:a="http://ns.adobe.com/AdobeSVGViewerExtensions/3.0/"
	 x="0px" y="0px" width="326px" height="710px" viewBox="0 0 326 710" overflow="visible" enable-background="new 0 0 326 710"
	 xml:space="preserve">
<defs>
</defs>
<path fill-rule="evenodd" clip-rule="evenodd" fill="#A36D00" d="M325.739,680.77c-8.289,1.531-13.121,13.779-22.936,7.298
	c-0.675,19.867-8.691,30.695-20.851,14.595c-3.74,1.475-5.398,5.029-9.384,6.259c-6.955-4.165-9.434-12.808-12.511-20.854
	c-2.021,1.455-1.554,5.396-3.127,7.298c-6.369-3.709-12.067-8.09-15.638-14.596c-2.854,1.663-1.165,7.87-3.127,10.425
	c-3.357-0.229-4.412,1.845-8.34,1.043c-15.365-37.458-25.692-79.954-44.831-113.64c-0.574-2.312,1.991-1.482,2.085-3.127
	c-14.662-9.667-33.526-15.128-46.916-26.063c-1.975,3.238-1.975,3.238-3.128,5.213c-7.986,16.343-26.574,31.113-37.533,47.956
	c9.24,0.772,18.517,6.082,25.021,3.128c14.067-6.388,31.572-16.168,47.958-20.851c0.679,5.291,2.632,2.868,8.342,3.127
	c0.069,5.727-4.922,3.763-8.342,5.213c-11.352,4.824-26.434,10.99-35.446,15.641c-1.521,0.783,0.825,1.767-1.042,3.128
	c-5.203,3.784-10.907,2.69-11.469,11.468c-4.005,0.257-1.991-8.956-1.042-10.426c-5.342-6.822-21.404-2.922-29.191-7.3
	c-2.966,6.417-4.347,14.42-9.383,18.769c9.799-30.86,26.883-54.439,36.489-85.491c-12.355-6.312-23.55-14.201-33.361-23.979
	c-8.326-8.297-20.884-20.132-27.107-33.363c-3.091-6.574-4.034-13.877-7.298-20.851c-2.847-6.08-6.19-12.405-9.383-18.767
	c-6.75-13.446-10.506-28.164-16.682-39.617c-2.08-3.858-8.97-22.887-11.468-29.192c-1.083-2.733-6.961-18.662-8.34-23.979
	C5.008,338.63,1.536,331.196,0.459,319c-1.375-15.585,0.639-31.915,2.085-45.873c2.724-26.285,10.319-49.896,18.766-71.937
	c2.639-6.884,3.617-14.393,6.255-20.852c5.085-12.443,16.406-23.565,18.767-36.489c4.588-25.133-15.159-36.181-11.468-63.597
	c3.55-26.372,24.501-56.481,43.787-69.852c15.467-10.722,65.441-15.334,84.448-3.127c12.386,7.954,24.596,21.575,34.405,31.277
	c5.819,5.755,5.249,8.5,7.759,9.787c5.795,2.971,21.972,7.968,25.812,9.958c4.783,2.479,11.954,6.698,15.242,11.532
	c-8.412,5.212-16.136,9.566-22.936,10.425c-4.77,0.602-19.202,3.321-24.893,6.224c-8.111,7.711-6.794,20.64-11.411,32.351
	c-4.453,11.293-16.145,25.51-9.384,41.703c5.836,13.977,18.955,22.211,30.235,32.32c9.564,8.57,14.119,18.565,20.852,31.276
	c2.723,5.141,7.556,10.268,9.383,14.597c6.284,14.89,6.024,31.892,12.51,49.001c3.22-1.133,7.545,36.805,8.34,55.255
	c1.039,24.084-2.002,46.445-6.255,68.809c-3.468,18.237-6.804,34.432-11.468,47.958c-3.13,9.075-2.697,20.305-5.212,30.233
	c-2.742,10.817-11.16,26.609-5.213,37.534c1.168,2.145,5.721,4.257,7.298,6.255c6.118,7.749,11.309,19.611,18.766,30.234
	c12.039,17.152,23.322,33.674,33.363,53.172c7.327,14.228,14.528,27.654,25.021,40.659
	C321.946,666.053,327.365,665.829,325.739,680.77z"/>
<path fill-rule="evenodd" clip-rule="evenodd" fill="#A36D00" d="M117.226,625.515c-2.581,1.005,1.437,4.003,0,7.298
	c-7.657-6.949-13.26,10.504-20.851,13.553c-4.238,0.416-3.208-4.438-6.255-5.213c-4.718,7.215-16.539,7.021-26.064,10.426
	c-5.521,1.975-10.539,9.196-13.553,9.383c1.01-0.062-4.05-2.72-3.127-3.127c-5.707,2.527-6.115,11.551-12.511,9.383
	c7.276-8.854,14.58-12.062,25.021-21.894c2.747-2.588,5.191-7.166,8.34-9.383c12.489-8.792,29.628-9.348,34.405-22.937
	c4.306,4.271,7.896-2.657,15.638-1.042c2.1,4.502,1.871,11.336,4.17,15.638C120.882,629.253,116.496,629.124,117.226,625.515z"/>
<path fill-rule="evenodd" clip-rule="evenodd" fill="#CC8800" d="M192.292,66.699c2.713,3.889,4.805,8.77,7.318,12.859
	c-7.045,8.141-10.626,13.716-14.616,24.674c-7.542-2.069-3.96-13.441-10.427-14.596c-8.572-1.531-7.079,13.31-16.68,15.638
	c0.035-13.342,2.729-22.767-8.34-22.937c-3.931-0.06-6.173,5.919-11.468,6.256c-9.041,0.576-16.479-9.371-14.597-18.767
	c1.035-5.162,6.454-5.707,10.427-9.383c6.616-6.121,12.776-15.843,17.723-22.936c20.644-9.804,46.61-5.58,45.873,17.723
	C197.345,60.259,195.645,63.046,192.292,66.699z"/>
<path fill-rule="evenodd" clip-rule="evenodd" fill="#CC8800" d="M203.85,53.7c9.855,3.115,26.043,7.229,27.596,12.27
	c-6.125,2.231-20.051-1.67-30.814-1.356C201.427,61.764,204.066,57.816,203.85,53.7z"/>
<path fill-rule="evenodd" clip-rule="evenodd" fill="#CC8800" d="M200.381,68.501c8.24,3.489,20.123,1.445,32.621,2.77
	c-7.433,3.515-21.032,6.104-27.409,7.656C203.017,76.292,200.399,73.695,200.381,68.501z"/>
<path fill-rule="evenodd" clip-rule="evenodd" fill="#CC8800" d="M196.462,479.555c-22.27,2.03-32.072-17.602-46.916-27.106
	c-14.652-9.383-29.192-16.771-42.746-27.107c4.543,9.449,16.899,12.748,26.065,19.81c12.818,9.875,21.33,26.053,33.361,35.446
	c1.565,1.224,3.526,0,5.213,1.043c10.188,6.296,19.468,15.852,28.15,23.98c-2.222,2.642-6.679,3.053-6.255,8.341
	c-34.456-29.27-68.971-66.812-96.958-95.918c3.282-2.52,6.62,1.871,10.425,2.085c4.652-4.73,4.238-14.527,8.34-19.808
	c21.762,21.33,42.269,43.917,65.683,63.596C180.999,468.314,190.612,473.937,196.462,479.555z"/>
<path fill-rule="evenodd" clip-rule="evenodd" fill="#CC8800" d="M99.503,425.341c27.344,32.018,59.167,59.883,88.619,90.705
	c1.535,1.604,5.29,0.953,4.17,5.213c-7.364-1.777-7.196-7.4-5.212,3.127c-12.758,4.09-15.13-8.475-20.853-14.595
	c-7.226-1.057-12.828-6.455-19.808-11.471c-31.182-22.404-48.745-63.106-78.193-87.575c3.526-0.568,5.942-9.886,7.298-7.298
	C86.021,407.206,100.083,425.345,99.503,425.341z"/>
<path fill-rule="evenodd" clip-rule="evenodd" fill="#CC8800" d="M71.353,422.214c10.257,4.947,14.856,16.738,21.895,26.064
	c5.365,7.108,13.241,12.046,18.766,18.766c3.205,3.897,4.545,9.019,7.297,12.511c6.59,8.358,16.062,16.6,25.022,22.936
	c7.172,5.075,15.657,10.812,20.851,19.811c-22.225-3.384-31.706-15.419-43.788-30.236c-6.931-8.497-15.367-14.873-21.894-22.936
	c-6.246-7.714-16.528-14.917-26.064-18.766c-0.265,5.721,2.229,7.068,3.127,13.553c-7.03-2.698-6.785-12.675-12.51-16.681
	c2.916-4.324,5.727,0.214,9.383-2.085C70.825,436.932,74.644,428.131,71.353,422.214z"/>
<path fill-rule="evenodd" clip-rule="evenodd" fill="#CC8800" d="M133.908,286.681c5.114,13.259,14.261,26.173,21.893,6.255
	c16.532,10.1,9.33,38.555,8.34,59.426c-14.023-14.474-23.654-33.338-36.49-49.001C132.568,300.633,130.392,290.81,133.908,286.681z"
	/>
<path fill-rule="evenodd" clip-rule="evenodd" fill="#CC8800" d="M170.397,337.767c4.339,1.569,5.358,6.457,9.383,8.34
	c4.031,0.538,4.113-6.007,7.299-3.128c1.813,10.957-3.155,23.875-5.213,34.404C172.515,367.967,162.97,355.938,170.397,337.767z"/>
<path fill-rule="evenodd" clip-rule="evenodd" fill="#CC8800" d="M152.674,345.065c23.029,27.708,42.997,58.479,59.426,92.788
	c-24.34-2.322-38.333-34.151-56.298-49c-5.238-4.331-17.62-8.569-18.766-13.555C135.065,366.731,147.524,349.238,152.674,345.065z"
	/>
<path fill-rule="evenodd" clip-rule="evenodd" fill="#CC8800" d="M117.226,359.66c23.266,25.388,52.027,45.281,72.98,72.98
	c-9.768,1.649-18.483-17.895-30.235-21.895c0.354,32.663,31.518,43.548,44.831,66.724c-15.366-15.535-36.16-29.909-52.128-46.914
	c-8.532-9.087-15.349-16.929-25.022-25.021c-8.572-7.174-17.25-16.108-22.936-26.065c3.236,0.108,2.975-3.279,7.298-2.085
	C110.908,368.633,114.679,364.758,117.226,359.66z"/>
<path fill-rule="evenodd" clip-rule="evenodd" fill="#CC8800" d="M188.122,362.788c3.963-0.836,1.325,4.929,2.085,7.297
	c7.692,1.949,10.067-10.447,19.808-4.17c-3.725,12.958-9.179,24.184-10.425,39.618C188.616,394.622,182.944,383.174,188.122,362.788
	z"/>
<path fill-rule="evenodd" clip-rule="evenodd" fill="#CC8800" d="M202.717,454.534c-1.955,1.172-2.214,4.041-4.17,5.213
	c-14.343-10.68-25.442-24.601-33.363-41.703c5.964,8.919,21.162,16.194,29.192,25.022c3.684,4.049,5.541,5.653,9.383,6.255
	c-1.983,3.46-1.052,4.232-0.197,4.771c3.429-2.479,4.412-7.145,6.854-10.606c-1.403-2.979-3.067,2.354-5.615,1.666
	c-1.006-2.816-2.922-4.724-5.213-6.255c4.799-3.025,9.352,3.13,16.681,1.042c-2.948-14.903,7.446-28.837,12.512-44.83
	c1.915-6.05,4.584-21.013,5.213-25.022c2.961,3.641,4.928,8.278,12.51,7.298c-2.224,37.144-18.397,69.107-30.235,100.086
	c-7.91-2.168-10.095-10.061-16.681-13.553C201.249,459.465,203.621,459.104,202.717,454.534z"/>
<path fill-rule="evenodd" clip-rule="evenodd" fill="#CC8800" d="M208.972,382.596c2.151-1.402-0.194,10.581,3.127,11.469
	c4.215-1.346,7.322-3.799,9.383-7.297c9.67,11.223-7.577,25.575-7.297,40.658C200.818,418.075,199.811,397.891,208.972,382.596z"/>
<path fill-rule="evenodd" clip-rule="evenodd" fill="#CC8800" d="M237.122,250.191c17.718,48.421,23.504,107.6,11.468,165.767
	c-7.051,34.073-16.277,69.711-27.107,102.173c-3.173,0.392-1.77-3.792-4.17-4.17c-5.808,3.225-6.575,11.495-9.383,17.723
	c-2.548-6.112,7.261-21.264-2.085-25.021c11.479-26.509,28.796-60.433,37.533-90.705c1.361-4.721,0.787-10.278,2.085-14.596
	c2.693-8.96,10.572-22.066,0-30.234c-3.761-2.905-8.301-0.229-9.383-4.17c-0.235-3.935,1.094-9.434-2.085-10.425
	c-4.331,7.485-3.624,20.008-7.299,28.148c-3.173,0.047-4.054-2.201-6.255-3.127c-1.645,1.83-4.787,2.163-5.212,5.214
	c-8.34-11.063,4.851-36.869,4.17-46.916c-5.511,5.26-5.431,16.115-10.425,21.894c-2.381,2.074-5.267-1.667-7.298-3.128
	c-4.805,0.408-4.912,5.514-9.383,6.255c-0.019-6.236-3.461-9.051-2.085-16.681c1.21-0.875,2.795-1.375,5.212-1.042
	c-4.479-13.635-19.045-5.414-26.064-14.596c1.773-9,0.81-20.737,1.042-31.277c7.175-0.818,9.508-6.478,12.512-11.468
	c15.991,6.422,17.005,5.281,21.894-11.469c3.26-11.168,9.198-18.516,15.638-22.936c5.587,2.866,7.992,0.834,14.597,0
	C236.586,254.521,236.545,252.047,237.122,250.191z"/>
<path fill-rule="evenodd" clip-rule="evenodd" fill="#CC8800" d="M49.46,419.086c0.81,0.928-2.369-1.135-2.085-1.043
	c-4.519-1.476-19.296-27.271-20.852-30.233c-5.943-11.329-9.199-19.438-11.468-30.235c0.1,0.473-2.285-2.977-3.127-8.34
	c-2.101-13.387,1.788-30.295,10.425-37.533c3.403,8.663,11.888,33.507,20.852,14.596c6.944,1.774,7.566,9.553,14.596,7.299
	c6.905-2.214,4.513-17.199,10.425-21.895c25.473,1.9,14.598-46.306,29.192-56.298c10.261-7.025,14.355,20.501,18.766,30.235
	c1.699,3.749,4.862,7.033,6.255,10.425c0.594,1.442-0.714,3.835,0,5.213c8.9,17.155,23.048,25.273,29.192,41.703
	c-11.716,3.227-12.817,17.07-18.766,26.063c-7.434-6.814-14.093-14.404-18.767-23.978c-4.926,1.884,2.193,3.967,0,9.383
	c-3.155,3.449-5.411,7.794-4.17,15.638c-3.264-0.483-4.653,0.906-4.17,4.17c-12.725,0.812-13.064-14.813-21.893-14.596
	c6.567,13.937,17.437,23.571,26.063,35.448c-2.447,5.894-3.029,13.651-4.17,20.851c-5.611-1.34-7.28-6.62-12.51-8.34
	c-1.995,0.438-4.488,0.378-4.17,3.127c-6.284-4.142-7.562-13.288-16.682-14.595c-2.453,2.064-1.776,7.258-3.128,10.425
	c-7.381-4.78-13.81-10.516-18.766-17.723c-0.4,8.617,13.504,19.443,19.808,28.148c-3.367,3.482-0.739,19.853-2.085,25.021
	C57.02,439.328,56.102,426.346,49.46,419.086z"/>
<path fill-rule="evenodd" clip-rule="evenodd" fill="#CC8800" d="M153.716,461.832c15.686,12.465,30.94,25.358,53.171,31.276
	c-0.628,3.889-3.922,5.115-4.17,9.383C187.755,487.566,165.711,479.725,153.716,461.832z"/>
<path fill-rule="evenodd" clip-rule="evenodd" fill="#CC8800" d="M204.802,512.918c2.649,8.57-3.363,17.478-2.085,28.148
	c7.939-3.53,8.716-14.223,13.553-20.851c1.175,2.944,4.59,2.028,7.298,1.043c0.477,13.063-3.221,27.254-11.468,28.148
	c-1.371,4.883-1.967,10.541-9.383,9.383C200.24,542.909,190.693,522.369,204.802,512.918z"/>
<path fill-rule="evenodd" clip-rule="evenodd" fill="#CC8800" d="M189.164,524.386c3.846,16.03,8.698,28.962,11.468,43.787
	c2.628-2.236,7.141-2.588,8.34-6.256c4.123,1.562,6.135,4.257,11.468,2.086c5.363,12.38,18.489,28.126,26.065,46.916
	c4.466,11.074,15.036,22.828,16.681,30.233c3.138,14.126-10.229,17.834-20.851,21.894c-9.033-22.403-14.713-43.56-26.064-63.597
	c-2.497-4.405-6.246-11.028-10.425-16.681c-5.237-7.082-8.774-9.41-10.426-19.809c-7.797-3.671-15.754-7.182-18.767-15.638
	c4.865,0,9.731,0,14.597,0c-0.162-9.918-8.356-11.801-11.469-18.766C184.155,528.414,186.914,526.656,189.164,524.386z"/>
<path fill-rule="evenodd" clip-rule="evenodd" fill="#CC8800" d="M290.293,632.813c4.213,6.063,9.439,8.514,10.425,15.639
	c-2.662-2.461-3.026-3.833-5.399-6.55c-1.223,8.659,9.49,10.35,12.697,18.018c-4.988,8.196-13.114,16.24-20.851,13.553
	c-7.577-2.631-10.048-13.051-16.682-18.766c-0.893-3.327,1.641-3.226,2.085-5.213c-11.156-21.944-26.821-47.23-40.659-68.811
	c-9.7-15.124-11.954-28.415-5.214-51.084c5.511,6.79,7.572,13.407,11.469,22.936c13.291,32.5,37.944,57.442,53.171,88.618
	C296.371,639.161,289.794,636.532,290.293,632.813z"/>
<path fill-rule="evenodd" clip-rule="evenodd" fill="#CC8800" d="M246.505,555.663c14.942,17.724,24.365,40.97,36.49,61.513
	C271.469,603.79,255.942,577.926,246.505,555.663z"/>
<path fill-rule="evenodd" clip-rule="evenodd" fill="#CC8800" d="M191.249,582.769c4.458,1.944,2.672-1.545,5.213-6.256
	c12.242,13.14,27.253,40.11,34.405,62.555c3.646,11.444,2.836,32.905,21.894,29.191c0,6.604,0,13.207,0,19.809
	c-6.37-2.666-7.885-10.186-14.596-12.511c-3.214,3.041-2.328,10.185-7.298,11.468C220.024,658.042,205.57,615.168,191.249,582.769z"
	/>
<path fill-rule="evenodd" clip-rule="evenodd" fill="#CC8800" d="M266.313,659.919c2.185,3.07,5.866,4.686,8.34,8.34
	c3.345,4.94,4.497,13.132,9.384,14.596c14.124,4.232,22.581-12.765,32.318-18.766c12.902,9.25-5.447,28.289-13.553,16.681
	c-6.382,4.043-6.095,14.758-7.298,23.98c-8.119,0.818-9.292-5.305-14.596-7.3c-4.872,0.343-4.512,5.915-9.384,6.258
	c-6.758-9.926-7.744-25.621-11.468-38.577C262.79,664.041,264.396,661.823,266.313,659.919z"/>
<path fill-rule="evenodd" clip-rule="evenodd" fill="#CC8800" d="M166.227,591.109c-10.764,8.354-27.833,15.951-39.618,19.811
	c-2.667-4.572,3.514-4.499,6.257-6.258C141.619,599.052,152.854,593.132,166.227,591.109z"/>
<path fill-rule="evenodd" clip-rule="evenodd" fill="#CC8800" d="M48.417,657.834c18.203-19.917,42.331-32.486,67.766-42.744
	c1.612,1.515,0.918,5.337,1.042,8.34c-2.123-2.093-2.776-0.272-4.17,1.043c-3.326,0.894-3.225-1.643-5.213-2.086
	c-8.311,8.497-16.062,17.054-23.978,21.894C73.73,650.477,60.119,649.013,48.417,657.834z"/>
<path fill-rule="evenodd" clip-rule="evenodd" fill="#CC8800" d="M109.928,627.6c-3.304,5.035-7.766,8.913-11.468,13.553
	C94.471,636.591,105.781,630.817,109.928,627.6z"/>
<path fill-rule="evenodd" clip-rule="evenodd" fill="#CC8800" d="M103.673,587.981c3.082-15.687,15.768-30.795,20.851-47.956
	c3.16,2.053,6.224,4.199,9.384,6.255C125.377,560.929,117.9,573.491,103.673,587.981z"/>
<path fill-rule="evenodd" clip-rule="evenodd" fill="#FFCF40" d="M153.716,87.551c2.82,9.938-5.527,22.297,4.17,23.979
	c9.853,1.708,7.627-14.158,16.68-17.723c-3.637,8.587,0.924,21.576,9.384,14.596c0.42,5.65-8.493,10.957-10.427,17.723
	c-9.248-2.324-12.494,7.049-17.723,10.426c-3.646,2.354-9.504,1.305-13.553,4.17c-8.223,5.819-11.017,36.792-21.895,15.638
	c-6.651-1.371-9.197,3.538-13.553,3.127c-10.644-1.005-15.455-16.968-21.893-17.723c-13.275-1.559-13.945,20.431-28.15,21.893
	c0.425-5.638-1.049-9.376-4.17-11.468c-4.77-1.013-8.786,6.994-11.468,11.468c0.05-7.395,9.231-15.433,10.425-22.936
	c2.277-14.316-6.445-24.266-7.298-39.618c-0.524-9.434-0.191-22.326,3.128-32.32c5.087-15.315,15.149-27.592,22.936-39.618
	c3.232-4.988,3.331-10.184,7.298-13.553c1.377-1.168,12.978-7.594,15.64-8.34c8.913-2.502,27.514-1.722,36.49-2.085
	c23.109-0.938,39.839,8.782,51.086,23.978c-13.275-2.15-26.473-0.359-35.448,10.427c-2.818,3.386-3.619,8.372-6.255,11.468
	c-5.269,6.188-13.218,9.695-17.724,14.596c-0.512,0.558-5.042,4.732-5.213,7.298c-0.401,6.021,11.453,21.727,19.81,21.895
	C143.414,94.998,144.579,84.595,153.716,87.551z"/>
<path fill-rule="evenodd" clip-rule="evenodd" fill="#FFCF40" d="M171.584,132.062c2.313,2.72-1.507,6.609-1.187,10.745
	c2.685,19.733,10.682,37.665,21.895,47.958c5.764,5.291,17.937,8.6,23.979,15.638c2.741,3.194,4.986,11.338,8.34,17.723
	c3.641,6.931,10.995,15.226,5.214,27.107c-22.755-4.131-26.203,19.521-30.235,37.533c-6.154,0.593-9.081-2.041-12.51-4.17
	c-10.015,3.541-9.835,11.391-19.81,10.425c-5.347-0.519-7.416-6.847-12.511-6.255c-5.976,0.692-4,7.573-10.425,8.34
	c-2.762-6.623-2.659-16.108-13.553-14.597c-3.354,1.164-0.817,8.22-4.172,9.384c-7.692-10.136-10.826-53.508-30.233-39.618
	c-12.066,8.636-13.342,36.317-17.725,54.213c-18.219-4.708-15.121,9.312-21.893,21.893c-4.183-2.073-5.407-7.103-9.383-9.383
	c-6.982,1.012-6.336,9.65-14.596,9.383c-0.722-9.704-4.327-16.525-9.384-21.893c-10.884,6.883-13.619,15.526-13.553,33.362
	c-6.39-11.846-7.94-32.177-6.255-52.128c4.411-52.226,21.517-104.947,47.958-131.364c2.199,28.162,23.31-0.135,29.191-8.34
	c12.867,4.663,21.306,21.992,38.575,15.638c10.509,17.033,19.587-9.172,23.98-17.723c10.497,2.263,12.047-7.968,18.108-10.185
	C164.3,134.687,169.354,133.928,171.584,132.062z"/>
<path fill-rule="evenodd" clip-rule="evenodd" fill="#FFCF40" d="M29.652,399.278c5.992,4.868,9.565,14.97,13.553,20.851
	c6.408,9.452,16.408,21.579,22.936,32.32c3.562,5.861,3.732,17.407,13.553,16.681c3.137-2.868-1.046-7.233-1.042-10.426
	c5.901,2.92,11.946,6.188,16.682,10.426c11.81,10.568,18.168,29.242,30.233,38.576c2.174,1.681,6.125,1.624,8.342,3.128
	c2.169,1.47,2.898,4.607,5.212,6.255c14.997,10.669,37.838,10.531,45.873,27.106c-3.97-0.896-6.909-2.822-12.512-2.085
	c-2.73,20.151,25.213,15.041,20.852,33.361c-41.51-33.208-103.229-46.204-129.278-94.874c-0.574-2.312-18.703-47.154-29.191-68.809
	C34.605,411.255,29.93,403.292,29.652,399.278z"/>
</svg>
